HIERARCHY
ROOT Hips
{
	OFFSET -0.001795 -0.223333 0.028219
	CHANNELS 6 Xposition Yposition Zposition Zrotation Yrotation Xrotation 
	JOINT LeftUpLeg
	{
		OFFSET 0.069520 -0.091406 -0.006815
		CHANNELS 3 Zrotation Yrotation Xrotation
		JOINT LeftLeg
		{
			OFFSET 0.034277 -0.375199 -0.004496
			CHANNELS 3 Zrotation Yrotation Xrotation
			JOINT LeftFoot
			{
				OFFSET -0.013596 -0.397961 -0.043693
				CHANNELS 3 Zrotation Yrotation Xrotation
				JOINT LeftToe
				{
					OFFSET 0.026358 -0.055791 0.119288
					CHANNELS 3 Zrotation Yrotation Xrotation
					End Site
					{
						OFFSET 0.000000 0.000000 0.000000
					}
				}
			}
		}
	}
	JOINT RightUpLeg
	{
		OFFSET -0.067670 -0.090522 -0.004320
		CHANNELS 3 Zrotation Yrotation Xrotation
		JOINT RightLeg
		{
			OFFSET -0.038290 -0.382569 -0.008850
			CHANNELS 3 Zrotation Yrotation Xrotation
			JOINT RightFoot
			{
				OFFSET 0.015774 -0.398415 -0.042312
				CHANNELS 3 Zrotation Yrotation Xrotation
				JOINT RightToe
				{
					OFFSET -0.025372 -0.048144 0.123348
					CHANNELS 3 Zrotation Yrotation Xrotation
					End Site
					{
						OFFSET 0.000000 0.000000 0.000000
					}
				}
			}
		}
	}
	JOINT Spine
	{
		OFFSET -0.002533 0.108963 -0.026696
		CHANNELS 3 Zrotation Yrotation Xrotation
		JOINT Spine1
		{
			OFFSET 0.005487 0.135180 0.001092
			CHANNELS 3 Zrotation Yrotation Xrotation
			JOINT Spine2
			{
				OFFSET 0.001457 0.052922 0.025425
				CHANNELS 3 Zrotation Yrotation Xrotation
				JOINT Neck
				{
					OFFSET -0.002778 0.213870 -0.042857
					CHANNELS 3 Zrotation Yrotation Xrotation
					JOINT Head
					{
						OFFSET 0.005152 0.064970 0.051349
						CHANNELS 3 Zrotation Yrotation Xrotation
						End Site
						{
							OFFSET 0.000000 0.000000 0.000000
						}
					}
				}
				JOINT LeftShoulder
				{
					OFFSET 0.078845 0.121749 -0.034090
					CHANNELS 3 Zrotation Yrotation Xrotation
					JOINT LeftArm
					{
						OFFSET 0.090977 0.030469 -0.008868
						CHANNELS 3 Zrotation Yrotation Xrotation
						JOINT LeftForeArm
						{
							OFFSET 0.259612 -0.012772 -0.027456
							CHANNELS 3 Zrotation Yrotation Xrotation
							JOINT LeftHand
							{
								OFFSET 0.249234 0.008986 -0.001171
								CHANNELS 3 Zrotation Yrotation Xrotation
								End Site
								{
									OFFSET 0.000000 0.000000 0.000000
								}
							}
						}
					}
				}
				JOINT RightShoulder
				{
					OFFSET -0.081759 0.118833 -0.038615
					CHANNELS 3 Zrotation Yrotation Xrotation
					JOINT RightArm
					{
						OFFSET -0.096012 0.032551 -0.009143
						CHANNELS 3 Zrotation Yrotation Xrotation
						JOINT RightForeArm
						{
							OFFSET -0.253742 -0.013329 -0.021401
							CHANNELS 3 Zrotation Yrotation Xrotation
							JOINT RightHand
							{
								OFFSET -0.255298 0.007772 -0.005559
								CHANNELS 3 Zrotation Yrotation Xrotation
								End Site
								{
									OFFSET 0.000000 0.000000 0.000000
								}
							}
						}
					}
				}
			}
		}
	}
}
MOTION
Frames: 15
Frame Time: 0.050000
0.000000 0.933598 0.000000 -0.552971 21.010192 -5.340050 2.261209 0.102456 16.455389 0.504428 -0.186162 3.069383 -1.714020 -1.758366 2.191556 0.000000 0.000000 0.000000 -2.906729 0.647737 -17.366499 1.431372 -0.376294 12.035522 -2.872843 -8.104986 20.047208 0.000000 0.000000 0.000000 2.148070 -0.763969 10.261281 6.959219 -5.539201 9.584977 -6.004777 -1.970096 2.894880 4.675919 -5.677167 7.831019 0.000000 0.000000 0.000000 -29.367211 -18.662813 5.219860 -43.070235 -12.284322 0.605529 2.366149 -34.761802 -0.132824 0.000000 0.000000 0.000000 26.323117 11.752889 8.180609 48.372428 17.522543 1.277667 -9.953769 21.511300 -0.678782 0.000000 0.000000 0.000000 
0.002176 0.933051 0.041298 0.093729 22.811579 -4.708096 2.891420 -0.121995 16.582831 0.381726 -0.392752 6.603859 -2.322438 -2.404536 2.813336 0.000000 0.000000 0.000000 -3.636391 0.436635 -15.739266 2.771265 -0.917329 13.955226 -3.596705 -8.947509 17.209330 0.000000 0.000000 0.000000 2.898732 -0.629910 8.219555 6.420459 -5.122466 8.909183 -5.416066 -2.446901 4.074786 4.368919 -6.106963 10.328731 0.000000 0.000000 0.000000 -29.055518 -16.564503 3.785938 -44.921812 -11.181076 0.084166 1.516526 -32.836091 0.134990 0.000000 0.000000 0.000000 24.651743 11.602179 7.972536 48.748566 18.758979 1.817915 -8.189959 19.734267 -0.359554 0.000000 0.000000 0.000000 
0.005615 0.935489 0.082054 0.870202 22.394089 -4.068353 2.795648 0.017442 13.505225 0.580680 -1.046469 13.643876 -4.403725 -0.976713 10.299431 0.000000 0.000000 0.000000 -4.111901 0.365719 -14.236805 3.641820 -1.249664 15.204816 -3.362003 -8.582687 14.012951 0.000000 0.000000 0.000000 4.028929 -0.593610 7.064902 6.422981 -5.155255 9.136465 -6.687254 -1.547668 4.679393 5.005771 -6.175729 8.106220 0.000000 0.000000 0.000000 -27.675729 -14.930037 2.464961 -47.267346 -10.034323 -0.386489 -0.267077 -29.924077 0.543639 0.000000 0.000000 0.000000 24.587829 11.911791 8.523784 46.457765 20.040185 1.958909 -8.408639 20.328211 -0.392753 0.000000 0.000000 0.000000 
0.010429 0.938855 0.119564 0.604362 23.330218 -4.454099 3.868320 -0.110738 9.342878 -1.314549 -1.826402 23.339153 -2.848894 4.086037 15.208563 0.000000 0.000000 0.000000 -3.303503 0.443793 -12.069805 3.708719 -1.441859 16.482732 -3.878175 -9.463726 12.369250 0.000000 0.000000 0.000000 5.153583 -0.475220 5.258290 6.813022 -6.195507 11.916712 -6.112811 -0.980726 2.750281 4.919579 -6.413388 9.262839 0.000000 0.000000 0.000000 -29.338199 -13.872879 1.355300 -46.842043 -6.137070 -1.544056 -2.559666 -30.259484 1.104998 0.000000 0.000000 0.000000 22.777950 12.296634 8.524538 46.480267 21.449170 2.759305 -7.942159 19.790651 -0.316867 0.000000 0.000000 0.000000 
0.016276 0.941537 0.152784 0.784735 24.205126 -5.008980 5.996520 -0.325887 2.805071 -7.027879 -1.691439 34.680870 0.141662 10.397025 21.989598 0.000000 0.000000 0.000000 -2.902425 0.363959 -8.411497 3.622891 -1.370208 15.346874 -4.303425 -10.297147 10.808568 0.000000 0.000000 0.000000 6.500252 -0.616198 5.791573 6.656014 -5.823452 10.773771 -5.035237 -0.856449 3.418556 5.300049 -7.527854 11.484137 0.000000 0.000000 0.000000 -31.002674 -13.685828 0.917357 -45.789637 -3.101603 -2.542621 -5.318790 -28.987254 1.800440 0.000000 0.000000 0.000000 22.576154 12.441574 8.709040 44.109028 22.835210 2.912301 -8.187305 20.535241 -0.372107 0.000000 0.000000 0.000000 
0.023069 0.944916 0.183006 0.911166 24.207501 -5.751297 6.270910 -0.425163 -3.390506 -9.889266 -1.581225 41.864851 3.369717 14.378224 23.200770 0.000000 0.000000 0.000000 -2.214315 0.253396 -5.019470 2.958207 -1.092802 14.488703 -4.298337 -10.405859 10.044664 0.000000 0.000000 0.000000 7.063548 -0.773786 6.828847 6.429849 -5.527389 10.259306 -4.196546 0.230767 3.483839 6.793428 -8.567108 9.753087 0.000000 0.000000 0.000000 -31.133428 -12.579350 -0.271089 -46.097044 -0.864471 -3.294094 -7.126825 -28.388582 2.154255 0.000000 0.000000 0.000000 21.993335 13.212633 9.391267 43.623753 25.975884 3.948681 -8.622849 19.318203 -0.400080 0.000000 0.000000 0.000000 
0.030784 0.948119 0.212158 1.859021 22.672406 -5.387717 4.830312 -0.658787 -8.587713 -11.199035 -0.785874 42.192173 6.585358 16.681232 14.279808 0.000000 0.000000 0.000000 -2.875378 0.009641 -2.121852 2.851834 -0.855399 12.568633 -3.544256 -9.077465 9.111217 0.000000 0.000000 0.000000 6.872093 -0.811301 7.300263 5.509018 -4.997767 10.914465 -4.002276 1.982616 2.282904 7.022396 -8.997172 10.168906 0.000000 0.000000 0.000000 -30.884129 -11.650708 -1.266683 -44.631451 1.273025 -3.730626 -9.744436 -27.310050 2.654073 0.000000 0.000000 0.000000 22.711067 13.553147 10.023582 41.856629 27.881557 4.295412 -8.261720 20.498103 -0.370281 0.000000 0.000000 0.000000 
0.039472 0.949377 0.241206 2.223407 20.659631 -5.516525 4.749358 -0.958440 -12.592913 -10.360240 -0.333530 37.970417 7.084735 16.353055 8.711181 0.000000 0.000000 0.000000 -2.928812 -0.195388 0.569378 2.297826 -0.567914 11.406210 -2.672488 -7.433761 8.120362 0.000000 0.000000 0.000000 6.630887 -0.880829 8.142005 4.625193 -4.307872 10.953186 -3.651856 3.493296 2.277826 7.247786 -8.977451 9.343033 0.000000 0.000000 0.000000 -30.912686 -11.192975 -1.816040 -44.890397 3.588732 -4.535176 -8.958442 -27.476102 2.443249 0.000000 0.000000 0.000000 22.417659 14.290444 10.576659 41.636990 30.583936 5.234369 -7.536200 21.428781 -0.272080 0.000000 0.000000 0.000000 
0.049536 0.947063 0.270989 2.340908 18.206495 -5.598050 6.096356 -1.058196 -15.363303 -8.705231 0.011085 30.543328 6.374023 15.692930 10.258607 0.000000 0.000000 0.000000 -3.246450 -0.413963 3.166416 2.145628 -0.413261 10.199277 -1.693240 -5.351241 6.339199 0.000000 0.000000 0.000000 6.043671 -0.860353 8.529093 3.736752 -3.692284 11.429882 -3.362999 5.038471 1.970465 6.603348 -8.520754 9.780154 0.000000 0.000000 0.000000 -31.057765 -10.849404 -2.222854 -43.691737 4.992511 -4.791734 -8.984638 -26.599555 2.376938 0.000000 0.000000 0.000000 22.826189 14.117065 10.663297 41.032110 31.816697 5.530126 -5.863534 24.770622 0.031864 0.000000 0.000000 0.000000 
0.061658 0.942117 0.301667 2.114103 16.028670 -5.925012 7.935954 -0.855951 -15.614502 -5.526562 -0.035212 19.543356 3.767990 12.466361 12.818078 0.000000 0.000000 0.000000 -3.609232 -0.610840 5.517891 2.224265 -0.367535 9.948787 -0.913690 -3.383994 4.303664 0.000000 0.000000 0.000000 5.726545 -0.860664 8.939125 2.592360 -2.898316 11.826075 -2.566701 5.560063 1.532206 5.204298 -7.406402 10.805665 0.000000 0.000000 0.000000 -31.857021 -10.170177 -2.536829 -42.476244 6.442423 -5.122773 -8.567439 -26.419219 2.315879 0.000000 0.000000 0.000000 22.700400 14.398384 10.576163 41.276167 32.228255 5.821993 -3.710011 27.789934 0.540691 0.000000 0.000000 0.000000 
0.076379 0.936287 0.333180 1.628230 13.194992 -6.298959 10.307315 -0.514229 -14.715072 -2.941836 0.046090 8.315991 1.386485 9.519446 15.276454 0.000000 0.000000 0.000000 -3.864829 -0.747204 7.509439 1.844509 -0.214712 10.283822 -0.014714 -0.864804 2.498007 0.000000 0.000000 0.000000 5.484199 -0.826721 9.041787 1.576436 -2.022507 11.344831 -2.277080 5.554850 2.534097 3.960674 -6.079516 10.940769 0.000000 0.000000 0.000000 -32.412705 -9.484635 -2.468706 -41.963033 6.763456 -5.381375 -7.521712 -25.244635 2.078417 0.000000 0.000000 0.000000 23.844496 14.819301 10.709475 40.104141 31.896189 5.371834 -0.429263 31.648359 1.486171 0.000000 0.000000 0.000000 
0.094561 0.930164 0.365676 1.440891 10.224489 -6.330680 12.504745 -0.198689 -13.945242 -1.774036 0.171092 -0.477038 -0.435129 8.079652 20.125290 0.000000 0.000000 0.000000 -4.560190 -0.739643 8.537759 0.933005 0.066219 11.828055 0.809833 1.637732 1.147161 0.000000 0.000000 0.000000 4.723521 -0.718877 8.775675 0.548163 -1.280103 11.957757 -2.172807 5.782859 2.354975 2.682022 -4.996687 12.100868 0.000000 0.000000 0.000000 -33.104627 -9.630057 -1.931406 -40.892713 7.821947 -5.669937 -6.621878 -24.356720 1.896574 0.000000 0.000000 0.000000 25.725300 14.401696 10.417554 38.953784 31.144052 4.871757 3.351110 33.828134 2.646522 0.000000 0.000000 0.000000 
0.116978 0.924561 0.399180 0.604935 8.099134 -6.534148 13.580591 -0.003119 -14.427207 -1.226756 0.176531 -2.484581 -2.922210 6.274647 25.978442 0.000000 0.000000 0.000000 -4.855941 -0.877623 11.104837 0.005358 0.327059 11.574899 1.395828 3.662063 0.066622 0.000000 0.000000 0.000000 4.253676 -0.655825 8.582640 0.595378 -1.105995 10.999577 -2.751233 5.138589 3.984418 2.500160 -4.591536 11.845680 0.000000 0.000000 0.000000 -33.532477 -9.281313 -1.514665 -40.833070 7.325333 -5.791613 -4.760664 -21.771567 1.423032 0.000000 0.000000 0.000000 27.444326 13.282684 9.534627 38.743362 28.862560 4.000727 8.692187 35.739166 4.426671 0.000000 0.000000 0.000000 
0.144558 0.919480 0.433543 0.245296 6.145957 -5.658222 13.637240 0.088761 -15.348421 -1.815054 0.192788 -0.646328 -2.987345 6.387881 27.917089 0.000000 0.000000 0.000000 -6.487688 -0.775391 12.971462 -0.142511 0.381154 10.912492 1.941822 5.381802 -0.422710 0.000000 0.000000 0.000000 3.117008 -0.483735 7.323320 -0.592483 -0.267349 10.881733 -2.107359 4.620453 4.730439 1.215609 -3.343997 12.931927 0.000000 0.000000 0.000000 -33.244271 -9.983427 -0.207794 -41.483125 6.947810 -6.059330 -3.777044 -20.708097 1.241062 0.000000 0.000000 0.000000 27.732723 12.252649 8.329782 40.654754 24.864853 3.061976 10.365495 35.976612 4.942696 0.000000 0.000000 0.000000 
0.176596 0.915527 0.468271 -0.883326 5.050735 -4.061323 13.620207 0.111038 -16.848678 -1.856184 0.123155 2.954344 -2.455591 6.516881 26.832685 0.000000 0.000000 0.000000 -7.435128 -0.586052 12.649089 0.142346 0.371274 12.336907 2.312443 5.256883 1.376609 0.000000 0.000000 0.000000 2.608981 -0.398856 6.299688 -0.464630 -0.228308 9.628110 -1.928636 3.445416 6.337591 1.325976 -3.240221 12.833723 0.000000 0.000000 0.000000 -33.601003 -9.690489 0.393965 -41.848631 6.151194 -6.171355 -2.737758 -20.745161 1.111890 0.000000 0.000000 0.000000 27.374847 10.820034 6.814694 42.421648 19.744173 1.544010 9.524192 35.778266 4.624101 0.000000 0.000000 0.000000 
